# xmcd
#
# Track frame offsets:
# 150
# 13431
# 23949
# 34945
# 46894
# 58992
# 69879
# 81271
# 94166
# 110623
#
# Disc length: 1640 seconds
#
#
# Revision: 0
# Processed by: cddbd v1.4PL0 Copyright (c) Steve Scherf et al.
# Submitted via: FreeRIP 2.00 
#
DISCID=8706660a
DTITLE=Waylon Jennings - Never Could Toe The Mark
DYEAR=1984
DGENRE=Country
TTITLE0=Never Could Toe The Mark
TTITLE1=Talk Good Boogie
TTITLE2=People Up In Texas
TTITLE3=Sparkling Brown Eyes
TTITLE4=If She'll Leave Her Mama
TTITLE5=Settin' Me Up
TTITLE6=Gemini Song (When I'm Bad I'm Bad)
TTITLE7=Where Would I Be
TTITLE8=Whatever Gets You Through The Night
TTITLE9=Entertainer
EXTD=RCA Victor AHL1\n5017
EXTT0=
EXTT1=
EXTT2=
EXTT3=
EXTT4=
EXTT5=
EXTT6=
EXTT7=
EXTT8=
EXTT9=
PLAYORDER=
